<svg xmlns="http://www.w3.org/2000/svg" xmlns:xlink="http://www.w3.org/1999/xlink" width="308" height="234" viewBox="0 0 308 234"><defs><style>.a,.c{fill:#fff;}.a{stroke:#707070;}.b{clip-path:url(#a);}.d{fill:#f49524;}</style><clipPath id="a"><rect class="a" width="308" height="234" transform="translate(162 2108)"/></clipPath></defs><g class="b" transform="translate(-162 -2108)"><g transform="translate(162 2186.516)"><path class="c" d="M67.111,38.6H80.8a14.5,14.5,0,0,1,1.806.075A4.011,4.011,0,0,1,86.3,43.111a3.866,3.866,0,0,1-4.138,3.762H63.2c-1.655.075-2.709,1.053-2.709,2.408a2.319,2.319,0,0,0,2.633,2.182c2.934.075,5.944,0,8.878,0,2.031,0,4.063-.075,6.019.075a4.1,4.1,0,0,1,3.611,5.944,3.894,3.894,0,0,1-3.912,2.332H64.026c-2.784,0-3.611.828-3.611,3.536v5.417A3.971,3.971,0,0,1,56.578,72.9a28.2,28.2,0,0,1-5.041,0A3.923,3.923,0,0,1,47.7,68.766c-.075-8.652-.075-17.38,0-26.032,0-2.709,1.655-4.213,4.589-4.213C57.33,38.521,62.221,38.6,67.111,38.6Z"/><path class="c" d="M282.062,60.34a30.646,30.646,0,0,0-3.16-.527c-1.73-.075-3.461,0-5.267,0-2.483-.075-4.063-1.5-4.138-3.988q-.113-6.771,0-13.543a3.857,3.857,0,0,1,3.988-3.912c1.429-.075,2.859,0,4.213,0a4.067,4.067,0,0,1,4.288,4.288c.075,3.235,0,6.47,0,9.706a11.109,11.109,0,0,0,.075,1.58,1.7,1.7,0,0,0,1.881,1.73q4.74.113,9.48,0c1.43,0,2.031-.752,2.031-2.408V41.982a3.987,3.987,0,0,1,3.912-3.611c1.58-.075,3.085-.075,4.665,0a3.808,3.808,0,0,1,3.912,3.762c.075,4.665.075,9.254,0,13.919a3.775,3.775,0,0,1-3.837,3.687c-2.031.075-4.063,0-6.019,0-2.332,0-3.085.828-3.16,3.16v5.417c-.075,2.784-1.58,4.439-4.288,4.589a36.6,36.6,0,0,1-4.063,0c-2.709-.15-4.138-1.655-4.213-4.364-.075-1.956,0-3.912,0-5.868A10.878,10.878,0,0,0,282.062,60.34Z"/><path class="c" d="M247.3,46.722V67.111c0,.527-.075,1.053-.075,1.58a4.088,4.088,0,0,1-4.364,4.288,32.642,32.642,0,0,1-3.837,0c-2.859-.15-4.439-1.73-4.439-4.665V46.647h-7.3a14.07,14.07,0,0,1-2.558-.226,4.1,4.1,0,0,1-.451-7.749,4.665,4.665,0,0,1,1.73-.3h29.643c2.633,0,4.288,1.5,4.364,3.912.075,2.558-1.5,4.213-4.213,4.364-2.107.075-4.138,0-6.245,0C248.808,46.722,248.055,46.722,247.3,46.722Z"/><path class="c" d="M17.681,49.807c1.129-.226,1.5.527,1.956,1.2,1.279,1.73,2.483,3.536,3.762,5.267a16.428,16.428,0,0,0,1.58,1.655c1.129-.752.978-1.655.978-2.483V43.111a6.429,6.429,0,0,1,.3-2.408,3.83,3.83,0,0,1,3.611-2.483,37.568,37.568,0,0,1,5.041,0c2.558.15,3.988,1.806,3.988,4.364V68.616a4.048,4.048,0,0,1-4.288,4.364c-2.182.075-4.439,0-6.621,0a3.828,3.828,0,0,1-3.235-1.73c-2.332-3.386-4.589-6.771-6.771-10.232a4.735,4.735,0,0,1-.677-2.483q-.113-3.837,0-7.674A2.966,2.966,0,0,1,17.681,49.807Z"/><path class="c" d="M.15,55.6V42.659A3.975,3.975,0,0,1,2.859,38.6a13.148,13.148,0,0,1,1.806-.226c1.354,0,2.709-.075,4.063,0a4.024,4.024,0,0,1,3.988,3.762,9.053,9.053,0,0,1,0,1.429c0,8.05-.075,16.1.075,24.226.075,3.31-1.73,5.417-5.342,5.267-.9-.075-1.881,0-2.859,0A4.247,4.247,0,0,1,.075,68.465C.226,64.177.15,59.888.15,55.6Z"/><path class="c" d="M108.19,55.75V68.089c0,3.461-1.5,4.89-4.89,4.966-1.129,0-2.257.075-3.461,0a4.089,4.089,0,0,1-4.213-4.439V42.81c0-2.784,1.655-4.288,4.439-4.364H103.9c2.709.075,4.213,1.5,4.288,4.213V55.75Z"/><path class="c" d="M212.393,55.826V68.089c0,3.461-1.5,4.89-4.966,4.89-1.053,0-2.182.075-3.235,0-2.784-.15-4.364-1.73-4.364-4.439V42.734c0-2.709,1.655-4.288,4.439-4.288h3.611c2.934.075,4.439,1.5,4.439,4.514C212.393,47.249,212.393,51.537,212.393,55.826Z"/><path class="d" d="M128.88,41.832c-.075.978-.226,1.881-.226,2.859V72.98c0,2.859-1.053,3.912-3.837,3.912H119.4a3.878,3.878,0,0,1-1.956-3.762V39.424c0-2.934,1.429-4.364,4.288-4.364h14.521a5.326,5.326,0,0,1,3.912,1.806L155.74,52.44l15.273,15.273a21.428,21.428,0,0,0,1.956,1.73c2.031,1.655,4.213,1.2,6.621.752.075-1.053.226-1.956.226-2.859V39.274c0-3.009,1.053-4.063,4.138-4.138h3.837a2.89,2.89,0,0,1,3.16,2.859,6.434,6.434,0,0,1,0,1.2v33.48c0,3.009-1.279,4.213-4.288,4.288-4.74,0-9.4-.075-14.144,0a5.477,5.477,0,0,1-4.288-1.806c-10.006-10.082-20.088-20.088-30.095-30.095l-.978-.978C135.05,41.3,132.266,41.154,128.88,41.832Z"/><path class="d" d="M141.972,66.961c0,2.107.075,4.138,0,6.245,0,2.332-1.279,3.611-3.386,3.611a3.219,3.219,0,0,1-3.386-3.461c-.075-4.213.075-8.5,0-12.715a3.422,3.422,0,0,1,5.116-3.085,3.039,3.039,0,0,1,1.655,3.009v6.4Z"/><path class="d" d="M172.819,44.766c0,2.107.15,4.138.15,6.245,0,2.332-1.129,3.611-3.31,3.611s-3.386-1.2-3.386-3.536V38.6c0-2.257,1.354-3.611,3.461-3.536,2.031,0,3.085,1.354,3.16,3.461,0,.075-.15.15-.15.226C172.819,40.7,172.819,42.734,172.819,44.766Z"/><path class="c" d="M6.169,33.932a19.573,19.573,0,0,1-2.784-.3A4,4,0,0,1,.3,29.493a3.867,3.867,0,0,1,3.235-3.988,22.973,22.973,0,0,1,5.568,0c2.107.226,3.31,1.881,3.31,4.138A3.9,3.9,0,0,1,9.1,33.781C8.276,33.932,7.3,33.856,6.169,33.932Z"/><path class="c" d="M101.645,33.932a12.985,12.985,0,0,1-2.859-.376,3.851,3.851,0,0,1-2.934-4.213c.075-2.031,1.129-3.611,3.085-3.912a24.867,24.867,0,0,1,5.793,0,3.865,3.865,0,0,1,3.31,3.988,3.948,3.948,0,0,1-3.235,4.213A20.481,20.481,0,0,1,101.645,33.932Z"/><path class="c" d="M206.148,25.129c.978.075,1.881.075,2.784.226a3.99,3.99,0,0,1,3.235,4.063,3.9,3.9,0,0,1-3.085,4.138,21.192,21.192,0,0,1-6.169,0c-1.956-.3-3.009-2.031-2.934-4.213a3.9,3.9,0,0,1,3.085-3.912C204.192,25.2,205.17,25.28,206.148,25.129Z"/><path class="c" d="M17.831,3.837,16.4,4.966a7.693,7.693,0,0,0-2.859-2.332,8.484,8.484,0,0,0-7.749.226A7.277,7.277,0,0,0,2.934,5.643,7.684,7.684,0,0,0,1.881,9.63,7.486,7.486,0,0,0,4.138,15.2a7.882,7.882,0,0,0,5.793,2.257,8.012,8.012,0,0,0,6.4-3.009L17.756,15.5a9.993,9.993,0,0,1-3.386,2.709,11.022,11.022,0,0,1-4.514.978,9.448,9.448,0,0,1-7.524-3.16A9.838,9.838,0,0,1,0,9.48,8.967,8.967,0,0,1,2.784,2.709,9.765,9.765,0,0,1,9.856,0a10.036,10.036,0,0,1,4.589.978A9.567,9.567,0,0,1,17.831,3.837Z"/><path class="c" d="M42.96,0a9.3,9.3,0,0,1,6.922,2.784,9.2,9.2,0,0,1,2.784,6.771,9.082,9.082,0,0,1-2.784,6.771,9.719,9.719,0,0,1-13.618,0,9.033,9.033,0,0,1-2.784-6.7,10.09,10.09,0,0,1,1.279-4.89A9.747,9.747,0,0,1,38.22,1.2,8.741,8.741,0,0,1,42.96,0Zm.15,1.806a7.747,7.747,0,0,0-3.837,1.053,7.456,7.456,0,0,0-2.859,2.859,7.885,7.885,0,0,0-1.053,3.988A7.436,7.436,0,0,0,37.618,15.2a7.388,7.388,0,0,0,5.417,2.257A7.813,7.813,0,0,0,46.948,16.4a7.6,7.6,0,0,0,2.784-2.784,7.837,7.837,0,0,0,.978-3.988,7.56,7.56,0,0,0-.978-3.912,7.267,7.267,0,0,0-2.859-2.784A6.156,6.156,0,0,0,43.111,1.806Z"/><path class="c" d="M68.992.828H72.98A31.149,31.149,0,0,1,77.118.9a4.456,4.456,0,0,1,2.633,1.5,4.461,4.461,0,0,1,.978,2.934A4.812,4.812,0,0,1,80.052,7.9,4.639,4.639,0,0,1,78.02,9.63a9.061,9.061,0,0,1-3.611.677l6.546,8.577H78.7L72.152,9.856h-.978v9.028H68.917V.828Zm2.257,1.5V8.427h3.085a8,8,0,0,0,2.709-.376A2.523,2.523,0,0,0,78.4,6.922a3.3,3.3,0,0,0,.451-1.73,2.564,2.564,0,0,0-.527-1.655,2.506,2.506,0,0,0-1.279-1.053,7.8,7.8,0,0,0-2.709-.3H71.249Z"/><path class="c" d="M96.077.828h1.956L104.052,14.9,110.222.828h1.956l-7.9,18.057H103.9Z"/><path class="c" d="M128.429.828h1.5V11.436a12.982,12.982,0,0,0,.15,2.408,3.258,3.258,0,0,0,.677,1.806,4.1,4.1,0,0,0,1.5,1.2,5.125,5.125,0,0,0,2.107.527A4.463,4.463,0,0,0,136.1,17a3.156,3.156,0,0,0,1.354-1.053,3.667,3.667,0,0,0,.677-1.655,14.507,14.507,0,0,0,.075-2.859V.828h2.257V11.436a13.251,13.251,0,0,1-.527,3.912,5.4,5.4,0,0,1-1.956,2.633,5.462,5.462,0,0,1-3.461,1.129,6.7,6.7,0,0,1-3.762-1.053,5.021,5.021,0,0,1-2.031-2.784,15.8,15.8,0,0,1-.226-3.837V.828Z"/><path class="c" d="M155.74,15.273l1.58-.9c1.053,2.031,2.332,3.009,3.762,3.009a3.5,3.5,0,0,0,1.73-.451,2.927,2.927,0,0,0,1.2-1.129,2.713,2.713,0,0,0,.451-1.5,3.444,3.444,0,0,0-.6-1.806,14.683,14.683,0,0,0-3.085-2.934,15.779,15.779,0,0,1-2.859-2.483,4.365,4.365,0,0,1-.376-4.966,3.4,3.4,0,0,1,1.58-1.5,5.529,5.529,0,0,1,2.257-.527,5.429,5.429,0,0,1,2.408.6A9.723,9.723,0,0,1,166.2,3.009l-1.5,1.129a8.017,8.017,0,0,0-1.73-1.806,2.781,2.781,0,0,0-1.58-.451,2.44,2.44,0,0,0-1.806.677,1.9,1.9,0,0,0-.828,1.655,3.019,3.019,0,0,0,.226,1.129,3.84,3.84,0,0,0,.9,1.2c.226.226,1.053.828,2.332,1.806a12.846,12.846,0,0,1,3.235,3.085,4.854,4.854,0,0,1,.9,2.709,4.73,4.73,0,0,1-1.5,3.461,5.048,5.048,0,0,1-3.687,1.429,5.25,5.25,0,0,1-3.009-.9A6.773,6.773,0,0,1,155.74,15.273Z"/><path class="c" d="M202.913.828h3.762a10.055,10.055,0,0,1,3.31.3,3.514,3.514,0,0,1,1.806,1.5,4.05,4.05,0,0,1,.677,2.332,4.316,4.316,0,0,1-.6,2.182,3.933,3.933,0,0,1-1.73,1.58,5.9,5.9,0,0,1,2.182,1.129,4.909,4.909,0,0,1,1.2,1.58,4.48,4.48,0,0,1,.451,2.031,5.347,5.347,0,0,1-1.58,3.837A6.156,6.156,0,0,1,208.1,18.96h-5.116V.828Zm2.257,1.5V8.351h.677a6.265,6.265,0,0,0,2.784-.527,3.17,3.17,0,0,0,1.429-1.2,2.928,2.928,0,0,0,.527-1.73,2.426,2.426,0,0,0-.9-1.956,4.592,4.592,0,0,0-2.784-.677h-1.73Zm0,7.524v6.771h1.956a9.911,9.911,0,0,0,2.934-.226,3.205,3.205,0,0,0,1.5-1.129,3.014,3.014,0,0,0,.6-1.73,3.089,3.089,0,0,0-.828-2.107,4.232,4.232,0,0,0-2.182-1.279,15.809,15.809,0,0,0-3.235-.226h-.752Z"/><path class="c" d="M230.751.828h9.781v1.5h-8.276V7.6h8.276V9.856h-8.276v6.771h8.276v2.257h-9.781Z"/><path class="c" d="M257.084.828h1.5v15.8h6.771v2.257h-8.276Z"/><path class="c" d="M281.159.828h2.257v15.8h6.771v2.257h-9.028Z"/><path class="c" d="M305.987.828h1.5V18.884h-1.5Z"/></g></g></svg>