<svg xmlns="http://www.w3.org/2000/svg" xmlns:xlink="http://www.w3.org/1999/xlink" width="43" height="43" viewBox="0 0 43 43"><defs><style>.a{fill:#252525;}.b{clip-path:url(#a);}.c{fill:#fcaf17;}</style><clipPath id="a"><circle class="a" cx="21.5" cy="21.5" r="21.5"/></clipPath></defs><g class="b"><g transform="translate(14.4 7.766)"><path class="c" d="M24.046.006,20.514,0c-3.968,0-6.532,2.631-6.532,6.7v3.09H10.431a.555.555,0,0,0-.555.556v4.477a.555.555,0,0,0,.555.555h3.551v11.3a.555.555,0,0,0,.555.555H19.17a.555.555,0,0,0,.555-.555v-11.3h4.152a.555.555,0,0,0,.555-.555l0-4.477a.556.556,0,0,0-.556-.556H19.726V7.173c0-1.259.3-1.9,1.94-1.9h2.379a.555.555,0,0,0,.555-.555V.561A.555.555,0,0,0,24.046.006Z" transform="translate(-9.876)"/></g></g></svg>