<svg xmlns="http://www.w3.org/2000/svg" xmlns:xlink="http://www.w3.org/1999/xlink" width="43" height="43" viewBox="0 0 43 43"><defs><style>.a{fill:#f5f5f5;}.b{clip-path:url(#a);}.c{fill:#7a7a7a;}</style><clipPath id="a"><circle class="a" cx="21.5" cy="21.5" r="21.5" transform="translate(1512 91)"/></clipPath></defs><g class="b" transform="translate(-1512 -91)"><g transform="translate(1512 91)"><g transform="translate(9.192 7.969)"><path class="c" d="M25.808,6.514a11.031,11.031,0,0,1-3.049.836,5.261,5.261,0,0,0,2.328-2.924,10.573,10.573,0,0,1-3.355,1.281A5.29,5.29,0,0,0,12.58,9.323,5.448,5.448,0,0,0,12.7,10.53,14.976,14.976,0,0,1,1.8,5a5.292,5.292,0,0,0,1.626,7.071,5.225,5.225,0,0,1-2.39-.652v.058a5.315,5.315,0,0,0,4.239,5.2,5.281,5.281,0,0,1-1.387.174,4.678,4.678,0,0,1-1-.09,5.341,5.341,0,0,0,4.944,3.686A10.631,10.631,0,0,1,1.266,22.7,9.91,9.91,0,0,1,0,22.626,14.9,14.9,0,0,0,8.117,25,14.955,14.955,0,0,0,23.175,9.944c0-.234-.008-.46-.019-.684A10.555,10.555,0,0,0,25.808,6.514Z"/></g></g></g></svg>