<svg xmlns="http://www.w3.org/2000/svg" width="50" height="50" viewBox="0 0 50 50"><g transform="translate(0)"><path d="M21.054,0H4.211A4.223,4.223,0,0,0,0,4.211V21.054a4.223,4.223,0,0,0,4.211,4.211H21.054a4.223,4.223,0,0,0,4.211-4.211V4.211A4.223,4.223,0,0,0,21.054,0ZM8.422,18.949a2.105,2.105,0,1,1,2.105-2.105A2.112,2.112,0,0,1,8.422,18.949Zm0-8.422a2.105,2.105,0,1,1,2.105-2.105A2.112,2.112,0,0,1,8.422,10.527Zm8.422,8.422a2.105,2.105,0,1,1,2.105-2.105A2.112,2.112,0,0,1,16.844,18.949Zm0-8.422a2.105,2.105,0,1,1,2.105-2.105A2.112,2.112,0,0,1,16.844,10.527Z"/><path d="M99.766,81.9,87.844,69.974a4.225,4.225,0,0,0-5.948,0L69.974,81.9a4.225,4.225,0,0,0,0,5.948L81.9,99.766a4.225,4.225,0,0,0,5.948,0L99.766,87.844a4.225,4.225,0,0,0,0-5.948ZM80.4,86.37a2.1,2.1,0,1,1,0-2.974A2.066,2.066,0,0,1,80.4,86.37Zm5.974,0a2.1,2.1,0,1,1,0-2.974A2.113,2.113,0,0,1,86.37,86.37Zm5.948,0a2.1,2.1,0,1,1,0-2.974A2.113,2.113,0,0,1,92.318,86.37Z" transform="translate(-50.99 -50.99)"/></g></svg>