<svg xmlns="http://www.w3.org/2000/svg" width="38.98" height="50" viewBox="0 0 38.98 50"><path d="M29.4,35.439h24.3v6.944H29.4Zm31.6-30.027L58.242,16.806a18.262,18.262,0,0,1,1.681,7.631l.036,21.03a4.477,4.477,0,0,1-4.469,4.485L27.672,50h-.008a4.484,4.484,0,0,1-4.477-4.469L23.151,24.5a18.326,18.326,0,0,1,1.7-7.771L22.1,5.412a1.336,1.336,0,0,1,.662-1.489l4.6-2.489a1.335,1.335,0,0,1,1.934.859l1.723,7.1a18.31,18.31,0,0,1,2.578-1.507v-.94A6.951,6.951,0,0,1,40.538,0h2.034a6.951,6.951,0,0,1,6.944,6.944v.972a18.481,18.481,0,0,1,2.569,1.511l1.731-7.133a1.335,1.335,0,0,1,1.934-.859l4.6,2.489A1.336,1.336,0,0,1,61.007,5.412ZM36.27,6.85A18.4,18.4,0,0,1,41.5,6.083h.033a18.259,18.259,0,0,1,5.3.786,4.276,4.276,0,0,0-4.269-4.2H40.538A4.275,4.275,0,0,0,36.27,6.85ZM56.377,34.1a1.335,1.335,0,0,0-1.335-1.335H28.068A1.335,1.335,0,0,0,26.733,34.1v9.614a1.335,1.335,0,0,0,1.335,1.335H55.042a1.335,1.335,0,0,0,1.335-1.335Zm0-8.99a14.822,14.822,0,0,0-29.644,0,1.335,1.335,0,0,0,2.671,0,12.151,12.151,0,1,1,24.3,0,1.336,1.336,0,0,0,2.671,0Z" transform="translate(-22.065)"/></svg>