<svg xmlns="http://www.w3.org/2000/svg" width="21.13" height="50" viewBox="0 0 21.13 50"><defs><style>.a{fill:#010002;}</style></defs><g transform="translate(-15.459)"><g transform="translate(15.459 0)"><circle class="a" cx="4.507" cy="4.507" r="4.507" transform="translate(5.981)"/><path class="a" d="M27.409,11.149a7.8,7.8,0,0,0-3.219.038c-7,.8-9.269,8.755-8.627,14.817.278,2.621,4.487,2.648,4.206,0a15.471,15.471,0,0,1,1.063-7.913v8.64c0,.1.01.2.015.3,0,.047-.014.086-.014.134,0,6.856-.012,13.709-.3,20.559-.128,3.045,4.682,3.033,4.809,0,.226-5.369.283-10.741.3-16.113a5.669,5.669,0,0,0,.684,0c.014,5.373.069,10.744.293,16.112.128,3.033,4.938,3.045,4.809,0-.289-6.85-.3-13.7-.3-20.559a2.542,2.542,0,0,0-.073-.592c-.007-2.976-.122-5.956-.087-8.93C32.4,20.019,32.527,23.65,32.279,26c-.282,2.646,3.928,2.62,4.206,0C37.141,19.816,34.76,11.659,27.409,11.149Z" transform="translate(-15.459 0)"/></g></g></svg>