<svg xmlns="http://www.w3.org/2000/svg" width="50" height="50.002" viewBox="0 0 50 50.002"><g transform="translate(-0.022 0)"><g transform="translate(0.022 0)"><path d="M620.7,619.991a3.336,3.336,0,0,0-1.255,2.519,3.083,3.083,0,0,0,1.785,2.728,2.969,2.969,0,1,0,1.163-5.7c-.071,0-.143.005-.209.01l-4.936-4.936,2.871-2.871a.819.819,0,0,0,0-1.153l-1.137-1.132a.819.819,0,0,0-1.153,0l-8.491,8.5a.819.819,0,0,0,0,1.152l1.137,1.137a.819.819,0,0,0,1.153,0l2.871-2.871,4.049,4.049c.005-.005.005-.01.01-.015.036-.051.071-.107.107-.158a4.212,4.212,0,0,1,.479-.546,3.969,3.969,0,0,1,1.01-.7,4.23,4.23,0,0,1,.775-.306c.189-.056.3-.076.3-.076s-.1.056-.255.168A2.726,2.726,0,0,0,620.7,619.991Z" transform="translate(-575.357 -575.471)"/><path d="M3.307,14.552a2.564,2.564,0,0,0,.938,1.438l27.1,20.526,1.836-1.836-21.938-23.4,23.4,21.938,1.9-1.9L16.158,4.113a2.556,2.556,0,0,0-1.474-.959L.961.018A.769.769,0,0,0,.043.946Z" transform="translate(-0.022 0)"/></g></g></svg>