<svg xmlns="http://www.w3.org/2000/svg" xmlns:xlink="http://www.w3.org/1999/xlink" width="28" height="24" viewBox="0 0 28 24"><defs><style>.a,.c{fill:#fcaf17;}.a{stroke:#707070;}.b{clip-path:url(#a);}</style><clipPath id="a"><rect class="a" width="28" height="24" transform="translate(429.42 1798.618)"/></clipPath></defs><g class="b" transform="translate(-429.42 -1798.618)"><g transform="translate(429 1798.065)"><path class="c" d="M9.157,16.653h15.1a.833.833,0,0,0,.8-.6l3.33-11.657a.833.833,0,0,0-.8-1.061H7.236L6.641.652A.833.833,0,0,0,5.828,0h-5a.833.833,0,0,0,0,1.665H5.16L8.167,15.193a2.5,2.5,0,0,0,.992,4.79h15.1a.833.833,0,0,0,0-1.665H9.159a.833.833,0,0,1,0-1.665ZM26.484,5l-2.855,9.991H9.827L7.606,5Zm0,0" transform="translate(0 0)"/><path class="c" d="M9.961,26.4a2.5,2.5,0,1,0,2.5-2.5A2.5,2.5,0,0,0,9.961,26.4Zm2.5-.833a.833.833,0,1,1-.833.833A.834.834,0,0,1,12.459,25.572Zm0,0" transform="translate(-1.635 -3.923)"/><path class="c" d="M24.039,26.4a2.5,2.5,0,1,0,2.5-2.5A2.5,2.5,0,0,0,24.039,26.4Zm2.5-.833a.833.833,0,1,1-.833.833A.834.834,0,0,1,26.537,25.572Zm0,0" transform="translate(-3.945 -3.923)"/></g></g></svg>